<svg version="1.1" xmlns="http://www.w3.org/2000/svg" xmlns:xlink="http://www.w3.org/1999/xlink" x="0px" y="0px"
	 width="27.662px" height="109.463px" viewBox="0 0 27.662 109.463" width="28" height="110"
	 xml:space="preserve">
	<path d="M17.598,91.672c0,0,1.88-0.484,2.651-2.675c0.771-2.188-0.393-3.747-0.393-3.747
		c0.001,0-1.882,0.487-2.65,2.675C16.435,90.116,17.598,91.673,17.598,91.672z"/>
	<path d="M18.379,83.415c1.052-2.435-0.149-4.302-0.149-4.302s-2.183,0.403-3.234,2.837
		c-1.053,2.436,0.148,4.304,0.148,4.303C15.145,86.253,17.328,85.849,18.379,83.415z"/>
	<path d="M16.891,77.612c1.37-2.651,0.168-4.84,0.168-4.84s-2.481,0.281-3.853,2.932
		c-1.373,2.649-0.172,4.841-0.172,4.841S15.517,80.259,16.891,77.612z"/>
	<path d="M16.022,8.334C13.88,9.228,13.5,11.135,13.5,11.135s1.621,1.072,3.764,0.177
		c2.141-0.892,2.519-2.797,2.519-2.797S18.164,7.442,16.022,8.334z"/>
	<path d="M13.499,29.777c2.455-1.695,2.422-4.192,2.422-4.192s-2.323-0.917-4.78,0.779
		c-2.455,1.694-2.423,4.196-2.423,4.195C8.718,30.558,11.043,31.471,13.499,29.777z"/>
	<path d="M12.66,51.084c2.278-2.409,1.665-5.117,1.665-5.117s-2.74-0.458-5.017,1.952
		c-2.276,2.41-1.663,5.117-1.663,5.117S10.38,53.495,12.66,51.084z"/>
	<path d="M12.676,44.01c2.44-2.244,2.017-4.989,2.017-4.989c0.001,0-2.698-0.646-5.138,1.597
		c-2.44,2.246-2.018,4.991-2.018,4.99C7.538,45.607,10.235,46.256,12.676,44.01z"/>
	<path d="M13.377,57.898c2.102-2.564,1.303-5.221,1.303-5.221s-2.764-0.265-4.866,2.296
		c-2.104,2.564-1.303,5.222-1.303,5.221C8.511,60.195,11.27,60.462,13.377,57.898z"/>
	<path d="M14.213,64.62c1.918-2.703,0.936-5.297,0.936-5.297s-2.775-0.075-4.693,2.629
		c-1.92,2.704-0.935,5.301-0.935,5.299C9.52,67.251,12.293,67.325,14.213,64.62z"/>
	<path d="M13.02,36.834C15.61,34.765,15.379,32,15.379,32s-2.646-0.835-5.235,1.234
		c-2.592,2.069-2.362,4.835-2.362,4.835S10.429,38.904,13.02,36.834z"/>
	<path d="M14.254,23.132c2.282-1.352,2.408-3.569,2.408-3.569s-2.005-0.956-4.286,0.396
		c-2.284,1.35-2.409,3.568-2.409,3.568S11.971,24.483,14.254,23.132z"/>
	<path d="M15.734,71.311c1.727-2.831,0.564-5.352,0.564-5.352s-2.772,0.121-4.498,2.95
		c-1.728,2.832-0.566,5.354-0.566,5.354S14.007,74.144,15.734,71.311z"/>
	<path d="M15.874,17.114c2.372-1.188,2.651-3.392,2.651-3.392s-1.933-1.093-4.304,0.095
		c-2.369,1.19-2.651,3.391-2.651,3.391S13.502,18.301,15.874,17.114z"/>
	<path d="M4.747,76.633c0,0,0.281,2.482,2.932,3.854c2.652,1.373,4.84,0.17,4.84,0.17s-0.281-2.481-2.933-3.854
		C6.936,75.431,4.747,76.633,4.747,76.633z"/>
	<path d="M7.603,83.357c0,0,0.403,2.184,2.839,3.236c2.436,1.052,4.302-0.149,4.302-0.149
		s-0.402-2.185-2.838-3.235C9.469,82.154,7.603,83.357,7.603,83.357z"/>
	<path d="M2.43,69.344c0,0,0.12,2.771,2.949,4.498c2.833,1.727,5.354,0.563,5.354,0.563s-0.122-2.772-2.952-4.498
		C4.948,68.18,2.431,69.343,2.43,69.344z"/>
	<path d="M0.266,54.122c0,0-0.266,2.761,2.297,4.866c2.565,2.104,5.221,1.302,5.221,1.302
		s0.266-2.761-2.296-4.866C2.923,53.319,0.266,54.122,0.266,54.122z"/>
	<path d="M1.062,61.805c0,0-0.075,2.772,2.63,4.693c2.705,1.92,5.298,0.935,5.298,0.935s0.075-2.774-2.63-4.694
		C3.655,60.82,1.062,61.805,1.062,61.805z"/>
	<path d="M10.682,89.533c0,0,0.487,1.88,2.677,2.651c2.191,0.771,3.746-0.393,3.746-0.393
		s-0.486-1.881-2.677-2.651C12.239,88.37,10.683,89.534,10.682,89.533z"/>
	<path d="M19.952,96.423c0,0,1.579-0.527,2.105-2.446c0.528-1.919-0.559-3.18-0.559-3.18
		c0-0.001-1.58,0.529-2.108,2.447C18.864,95.163,19.952,96.423,19.952,96.423z"/>
	<path d="M13.854,95.111c0,0,0.536,1.568,2.469,2.096c1.932,0.529,3.199-0.55,3.199-0.55
		s-0.535-1.569-2.468-2.096C15.122,94.034,13.854,95.111,13.854,95.111z"/>
	<path d="M5.348,16.803c0,0-0.959,2.004,0.394,4.286c1.351,2.284,3.568,2.408,3.568,2.408
		s0.957-2.004-0.396-4.287C7.563,16.927,5.348,16.803,5.348,16.803z"/>
	<path d="M0.035,46.424c0,0-0.458,2.737,1.952,5.017c2.411,2.275,5.118,1.662,5.118,1.662
		s0.458-2.738-1.953-5.014C2.741,45.811,0.035,46.424,0.035,46.424z"/>
	<path d="M7.374,10.062c0,0-1.095,1.933,0.095,4.304c1.188,2.371,3.392,2.652,3.392,2.652
		s1.093-1.933-0.095-4.305C9.576,10.342,7.374,10.062,7.374,10.062z"/>
	<path d="M10.224,4.542c0,0-1.075,1.621-0.181,3.762c0.894,2.145,2.799,2.522,2.799,2.522s1.073-1.62,0.179-3.762
		C12.128,4.92,10.224,4.542,10.224,4.542z"/>
	<path d="M3.111,23.211c0,0-0.918,2.325,0.779,4.782c1.695,2.457,4.194,2.422,4.194,2.422S9,28.091,7.306,25.636
		C5.608,23.18,3.113,23.214,3.111,23.211z"/>
	<path d="M0.318,38.447c0,0-0.65,2.699,1.596,5.138c2.248,2.442,4.987,2.018,4.987,2.018s0.649-2.699-1.597-5.139
		C3.06,38.023,0.318,38.447,0.318,38.447z"/>
	<path d="M1.271,30.439c0,0-0.836,2.646,1.236,5.236c2.068,2.591,4.834,2.36,4.834,2.36s0.836-2.646-1.235-5.237
		C4.037,30.208,1.271,30.439,1.271,30.439z"/>
	<path d="M27.071,109.463l0.591-0.409C1.374,71.165,4.658,29.741,16.497,3.609l-0.654-0.296
		C3.921,29.625,0.612,71.328,27.071,109.463z"/>
	<path d="M18.047,4.304C19.216,1.921,18.103,0,18.103,0s-2.199,0.3-3.366,2.681
		c-1.167,2.383-0.058,4.306-0.058,4.306S16.88,6.688,18.047,4.304z"/>
</svg>
